<svg xmlns="http://www.w3.org/2000/svg" xmlns:xlink="http://www.w3.org/1999/xlink" width="1920" zoomAndPan="magnify" viewBox="0 0 1440 809.999993" height="1080" preserveAspectRatio="xMidYMid meet" version="1.2"><defs><linearGradient x1="0" gradientTransform="matrix(0.75,0,0,0.75,0.00000622222,0.00002)" y1="540" x2="1919.99992" gradientUnits="userSpaceOnUse" y2="540" id="f8d01f576f"><stop style="stop-color:#ffde59;stop-opacity:1;" offset="0"/><stop style="stop-color:#ffde59;stop-opacity:1;" offset="0.0078125"/><stop style="stop-color:#ffdd59;stop-opacity:1;" offset="0.015625"/><stop style="stop-color:#ffdd59;stop-opacity:1;" offset="0.0234375"/><stop style="stop-color:#ffdc59;stop-opacity:1;" offset="0.03125"/><stop style="stop-color:#ffdb59;stop-opacity:1;" offset="0.0390625"/><stop style="stop-color:#ffdb58;stop-opacity:1;" offset="0.046875"/><stop style="stop-color:#ffda58;stop-opacity:1;" offset="0.0546875"/><stop style="stop-color:#ffda58;stop-opacity:1;" offset="0.0625"/><stop style="stop-color:#ffd958;stop-opacity:1;" offset="0.0703125"/><stop style="stop-color:#ffd858;stop-opacity:1;" offset="0.078125"/><stop style="stop-color:#ffd858;stop-opacity:1;" offset="0.0859375"/><stop style="stop-color:#ffd758;stop-opacity:1;" offset="0.09375"/><stop style="stop-color:#ffd758;stop-opacity:1;" offset="0.101562"/><stop style="stop-color:#ffd658;stop-opacity:1;" offset="0.109375"/><stop style="stop-color:#ffd558;stop-opacity:1;" offset="0.117188"/><stop style="stop-color:#ffd558;stop-opacity:1;" offset="0.125"/><stop style="stop-color:#ffd457;stop-opacity:1;" offset="0.132812"/><stop style="stop-color:#ffd457;stop-opacity:1;" offset="0.140625"/><stop style="stop-color:#ffd357;stop-opacity:1;" offset="0.148438"/><stop style="stop-color:#ffd257;stop-opacity:1;" offset="0.15625"/><stop style="stop-color:#ffd257;stop-opacity:1;" offset="0.164062"/><stop style="stop-color:#ffd157;stop-opacity:1;" offset="0.171875"/><stop style="stop-color:#ffd157;stop-opacity:1;" offset="0.179688"/><stop style="stop-color:#ffd057;stop-opacity:1;" offset="0.1875"/><stop style="stop-color:#ffcf57;stop-opacity:1;" offset="0.195312"/><stop style="stop-color:#ffcf57;stop-opacity:1;" offset="0.203125"/><stop style="stop-color:#ffce57;stop-opacity:1;" offset="0.210938"/><stop style="stop-color:#ffce56;stop-opacity:1;" offset="0.21875"/><stop style="stop-color:#ffcd56;stop-opacity:1;" offset="0.226562"/><stop style="stop-color:#ffcc56;stop-opacity:1;" offset="0.234375"/><stop style="stop-color:#ffcc56;stop-opacity:1;" offset="0.242188"/><stop style="stop-color:#ffcb56;stop-opacity:1;" offset="0.25"/><stop style="stop-color:#ffcb56;stop-opacity:1;" offset="0.257812"/><stop style="stop-color:#ffca56;stop-opacity:1;" offset="0.265625"/><stop style="stop-color:#ffc956;stop-opacity:1;" offset="0.273438"/><stop style="stop-color:#ffc956;stop-opacity:1;" offset="0.28125"/><stop style="stop-color:#ffc856;stop-opacity:1;" offset="0.289062"/><stop style="stop-color:#ffc855;stop-opacity:1;" offset="0.296875"/><stop style="stop-color:#ffc755;stop-opacity:1;" offset="0.304688"/><stop style="stop-color:#ffc655;stop-opacity:1;" offset="0.3125"/><stop style="stop-color:#ffc655;stop-opacity:1;" offset="0.320312"/><stop style="stop-color:#ffc555;stop-opacity:1;" offset="0.328125"/><stop style="stop-color:#ffc555;stop-opacity:1;" offset="0.335938"/><stop style="stop-color:#ffc455;stop-opacity:1;" offset="0.34375"/><stop style="stop-color:#ffc355;stop-opacity:1;" offset="0.351562"/><stop style="stop-color:#ffc355;stop-opacity:1;" offset="0.359375"/><stop style="stop-color:#ffc255;stop-opacity:1;" offset="0.367188"/><stop style="stop-color:#ffc255;stop-opacity:1;" offset="0.375"/><stop style="stop-color:#ffc154;stop-opacity:1;" offset="0.382812"/><stop style="stop-color:#ffc054;stop-opacity:1;" offset="0.390625"/><stop style="stop-color:#ffc054;stop-opacity:1;" offset="0.398438"/><stop style="stop-color:#ffbf54;stop-opacity:1;" offset="0.40625"/><stop style="stop-color:#ffbf54;stop-opacity:1;" offset="0.414062"/><stop style="stop-color:#ffbe54;stop-opacity:1;" offset="0.421875"/><stop style="stop-color:#ffbd54;stop-opacity:1;" offset="0.429688"/><stop style="stop-color:#ffbd54;stop-opacity:1;" offset="0.4375"/><stop style="stop-color:#ffbc54;stop-opacity:1;" offset="0.445312"/><stop style="stop-color:#ffbc54;stop-opacity:1;" offset="0.453125"/><stop style="stop-color:#ffbb54;stop-opacity:1;" offset="0.460938"/><stop style="stop-color:#ffba53;stop-opacity:1;" offset="0.46875"/><stop style="stop-color:#ffba53;stop-opacity:1;" offset="0.476562"/><stop style="stop-color:#ffb953;stop-opacity:1;" offset="0.484375"/><stop style="stop-color:#ffb853;stop-opacity:1;" offset="0.492188"/><stop style="stop-color:#ffb853;stop-opacity:1;" offset="0.5"/><stop style="stop-color:#ffb753;stop-opacity:1;" offset="0.507812"/><stop style="stop-color:#ffb753;stop-opacity:1;" offset="0.515625"/><stop style="stop-color:#ffb653;stop-opacity:1;" offset="0.523438"/><stop style="stop-color:#ffb553;stop-opacity:1;" offset="0.53125"/><stop style="stop-color:#ffb553;stop-opacity:1;" offset="0.539062"/><stop style="stop-color:#ffb452;stop-opacity:1;" offset="0.546875"/><stop style="stop-color:#ffb452;stop-opacity:1;" offset="0.554688"/><stop style="stop-color:#ffb352;stop-opacity:1;" offset="0.5625"/><stop style="stop-color:#ffb252;stop-opacity:1;" offset="0.570312"/><stop style="stop-color:#ffb252;stop-opacity:1;" offset="0.578125"/><stop style="stop-color:#ffb152;stop-opacity:1;" offset="0.585938"/><stop style="stop-color:#ffb152;stop-opacity:1;" offset="0.59375"/><stop style="stop-color:#ffb052;stop-opacity:1;" offset="0.601562"/><stop style="stop-color:#ffaf52;stop-opacity:1;" offset="0.609375"/><stop style="stop-color:#ffaf52;stop-opacity:1;" offset="0.617188"/><stop style="stop-color:#ffae52;stop-opacity:1;" offset="0.625"/><stop style="stop-color:#ffae51;stop-opacity:1;" offset="0.632812"/><stop style="stop-color:#ffad51;stop-opacity:1;" offset="0.640625"/><stop style="stop-color:#ffac51;stop-opacity:1;" offset="0.648438"/><stop style="stop-color:#ffac51;stop-opacity:1;" offset="0.65625"/><stop style="stop-color:#ffab51;stop-opacity:1;" offset="0.664062"/><stop style="stop-color:#ffab51;stop-opacity:1;" offset="0.671875"/><stop style="stop-color:#ffaa51;stop-opacity:1;" offset="0.679688"/><stop style="stop-color:#ffa951;stop-opacity:1;" offset="0.6875"/><stop style="stop-color:#ffa951;stop-opacity:1;" offset="0.695312"/><stop style="stop-color:#ffa851;stop-opacity:1;" offset="0.703125"/><stop style="stop-color:#ffa851;stop-opacity:1;" offset="0.710938"/><stop style="stop-color:#ffa750;stop-opacity:1;" offset="0.71875"/><stop style="stop-color:#ffa650;stop-opacity:1;" offset="0.726562"/><stop style="stop-color:#ffa650;stop-opacity:1;" offset="0.734375"/><stop style="stop-color:#ffa550;stop-opacity:1;" offset="0.742188"/><stop style="stop-color:#ffa550;stop-opacity:1;" offset="0.75"/><stop style="stop-color:#ffa450;stop-opacity:1;" offset="0.757812"/><stop style="stop-color:#ffa350;stop-opacity:1;" offset="0.765625"/><stop style="stop-color:#ffa350;stop-opacity:1;" offset="0.773438"/><stop style="stop-color:#ffa250;stop-opacity:1;" offset="0.78125"/><stop style="stop-color:#ffa250;stop-opacity:1;" offset="0.789062"/><stop style="stop-color:#ffa14f;stop-opacity:1;" offset="0.796875"/><stop style="stop-color:#ffa04f;stop-opacity:1;" offset="0.804688"/><stop style="stop-color:#ffa04f;stop-opacity:1;" offset="0.8125"/><stop style="stop-color:#ff9f4f;stop-opacity:1;" offset="0.820312"/><stop style="stop-color:#ff9f4f;stop-opacity:1;" offset="0.828125"/><stop style="stop-color:#ff9e4f;stop-opacity:1;" offset="0.835938"/><stop style="stop-color:#ff9d4f;stop-opacity:1;" offset="0.84375"/><stop style="stop-color:#ff9d4f;stop-opacity:1;" offset="0.851562"/><stop style="stop-color:#ff9c4f;stop-opacity:1;" offset="0.859375"/><stop style="stop-color:#ff9c4f;stop-opacity:1;" offset="0.867188"/><stop style="stop-color:#ff9b4f;stop-opacity:1;" offset="0.875"/><stop style="stop-color:#ff9a4e;stop-opacity:1;" offset="0.882812"/><stop style="stop-color:#ff9a4e;stop-opacity:1;" offset="0.890625"/><stop style="stop-color:#ff994e;stop-opacity:1;" offset="0.898438"/><stop style="stop-color:#ff994e;stop-opacity:1;" offset="0.90625"/><stop style="stop-color:#ff984e;stop-opacity:1;" offset="0.914062"/><stop style="stop-color:#ff974e;stop-opacity:1;" offset="0.921875"/><stop style="stop-color:#ff974e;stop-opacity:1;" offset="0.929688"/><stop style="stop-color:#ff964e;stop-opacity:1;" offset="0.9375"/><stop style="stop-color:#ff964e;stop-opacity:1;" offset="0.945312"/><stop style="stop-color:#ff954e;stop-opacity:1;" offset="0.953125"/><stop style="stop-color:#ff944e;stop-opacity:1;" offset="0.960938"/><stop style="stop-color:#ff944d;stop-opacity:1;" offset="0.96875"/><stop style="stop-color:#ff934d;stop-opacity:1;" offset="0.976562"/><stop style="stop-color:#ff934d;stop-opacity:1;" offset="0.984375"/><stop style="stop-color:#ff924d;stop-opacity:1;" offset="0.992188"/><stop style="stop-color:#ff914d;stop-opacity:1;" offset="1"/></linearGradient><clipPath id="e6f40cef95"><path d="M 0 0 L 120 0 L 120 116 L 0 116 Z M 0 0 "/></clipPath><clipPath id="efb6078a8b"><path d="M -157.167969 85.601562 L -23.019531 -142.644531 L 205.226562 -8.5 L 71.082031 219.746094 Z M -157.167969 85.601562 "/></clipPath><clipPath id="ba94bc447d"><path d="M -157.167969 85.601562 L -23.019531 -142.644531 L 205.226562 -8.5 L 71.082031 219.746094 Z M -157.167969 85.601562 "/></clipPath><clipPath id="aeeb66ea41"><path d="M 1216 314 L 1428 314 L 1428 528 L 1216 528 Z M 1216 314 "/></clipPath><clipPath id="65d710097f"><path d="M 1078.476562 486.960938 L 1228.800781 199.941406 L 1515.816406 350.261719 L 1365.496094 637.28125 Z M 1078.476562 486.960938 "/></clipPath><clipPath id="6d7cb8e81b"><path d="M 1078.476562 486.960938 L 1228.800781 199.941406 L 1515.816406 350.261719 L 1365.496094 637.28125 Z M 1078.476562 486.960938 "/></clipPath><clipPath id="ddec29d1b2"><path d="M 202 14 L 394 14 L 394 241 L 202 241 Z M 202 14 "/></clipPath><clipPath id="e36b83a5f1"><path d="M 81 189.710938 L 231.320312 -97.304688 L 518.339844 53.015625 L 368.019531 340.035156 Z M 81 189.710938 "/></clipPath><clipPath id="87c8e32101"><path d="M 81 189.710938 L 231.320312 -97.304688 L 518.339844 53.015625 L 368.019531 340.035156 Z M 81 189.710938 "/></clipPath><clipPath id="d5c97682cf"><path d="M 488 0 L 708 0 L 708 125 L 488 125 Z M 488 0 "/></clipPath><clipPath id="cc3ff0906f"><path d="M 364.992188 117.949219 L 515.3125 -169.070312 L 802.328125 -18.75 L 652.007812 268.269531 Z M 364.992188 117.949219 "/></clipPath><clipPath id="cc56a1da3c"><path d="M 364.992188 117.949219 L 515.3125 -169.070312 L 802.328125 -18.75 L 652.007812 268.269531 Z M 364.992188 117.949219 "/></clipPath><clipPath id="132ede07a3"><path d="M 356 348 L 533 348 L 533 550 L 356 550 Z M 356 348 "/></clipPath><clipPath id="e33652ffbb"><path d="M 213.648438 506.769531 L 363.96875 219.75 L 650.988281 370.070312 L 500.667969 657.089844 Z M 213.648438 506.769531 "/></clipPath><clipPath id="f0bf2f7d5e"><path d="M 213.648438 506.769531 L 363.96875 219.75 L 650.988281 370.070312 L 500.667969 657.089844 Z M 213.648438 506.769531 "/></clipPath><clipPath id="91477f21f1"><path d="M 1039 0 L 1237 0 L 1237 112 L 1039 112 Z M 1039 0 "/></clipPath><clipPath id="98954e4f3e"><path d="M 915.203125 85.246094 L 1065.523438 -201.773438 L 1352.542969 -51.453125 L 1202.222656 235.566406 Z M 915.203125 85.246094 "/></clipPath><clipPath id="4005730eeb"><path d="M 915.203125 85.246094 L 1065.523438 -201.773438 L 1352.542969 -51.453125 L 1202.222656 235.566406 Z M 915.203125 85.246094 "/></clipPath><clipPath id="20320ec6ba"><path d="M 776 125 L 987 125 L 987 342 L 776 342 Z M 776 125 "/></clipPath><clipPath id="c9c6191f57"><path d="M 888.507812 13.898438 L 1117.609375 243 L 888.507812 472.101562 L 659.40625 243 Z M 888.507812 13.898438 "/></clipPath><clipPath id="b110855a74"><path d="M 888.507812 13.898438 L 1117.609375 243 L 888.507812 472.101562 L 659.40625 243 Z M 888.507812 13.898438 "/></clipPath><clipPath id="24949bb4b3"><path d="M 847 546 L 1079 546 L 1079 750 L 847 750 Z M 847 546 "/></clipPath><clipPath id="20fd879856"><path d="M 732.53125 716.882812 L 882.851562 429.863281 L 1169.871094 580.183594 L 1019.550781 867.203125 Z M 732.53125 716.882812 "/></clipPath><clipPath id="741cac346e"><path d="M 732.53125 716.882812 L 882.851562 429.863281 L 1169.871094 580.183594 L 1019.550781 867.203125 Z M 732.53125 716.882812 "/></clipPath></defs><g id="0db4147072"><rect x="0" width="1440" y="0" height="809.999993" style="fill:#ffffff;fill-opacity:1;stroke:none;"/><rect x="0" width="1440" y="0" height="809.999993" style="fill:url(#f8d01f576f);stroke:none;"/><g clip-rule="nonzero" clip-path="url(#e6f40cef95)"><g clip-rule="nonzero" clip-path="url(#efb6078a8b)"><g clip-rule="nonzero" clip-path="url(#ba94bc447d)"><path style=" stroke:none;fill-rule:nonzero;fill:#e0feca;fill-opacity:1;" d="M 101.222656 21.117188 C 128.804688 50.125 124.324219 75.691406 87.773438 97.816406 C 51.226562 119.945312 19.5625 120.785156 -7.214844 100.335938 C -33.992188 79.890625 -47.789062 50.59375 -48.605469 12.445312 C -49.421875 -25.707031 -31.550781 -41.046875 5.007812 -33.585938 C 41.566406 -26.125 73.640625 -7.886719 101.222656 21.117188 Z M 101.222656 21.117188 "/></g></g></g><g clip-rule="nonzero" clip-path="url(#aeeb66ea41)"><g clip-rule="nonzero" clip-path="url(#65d710097f)"><g clip-rule="nonzero" clip-path="url(#6d7cb8e81b)"><path style=" stroke:none;fill-rule:nonzero;fill:#e0feca;fill-opacity:1;" d="M 1407.355469 372.640625 C 1439.339844 421.214844 1432.292969 463.421875 1386.207031 499.269531 C 1340.125 535.117188 1300.425781 537.246094 1267.105469 505.652344 C 1233.789062 474.0625 1216.984375 437.828125 1216.6875 396.953125 C 1216.394531 356.082031 1240.101562 329.667969 1287.8125 317.714844 C 1335.523438 305.761719 1375.371094 324.070312 1407.355469 372.640625 Z M 1407.355469 372.640625 "/></g></g></g><g clip-rule="nonzero" clip-path="url(#ddec29d1b2)"><g clip-rule="nonzero" clip-path="url(#e36b83a5f1)"><g clip-rule="nonzero" clip-path="url(#87c8e32101)"><path style=" stroke:none;fill-rule:nonzero;fill:#e0feca;fill-opacity:1;" d="M 387.601562 65.554688 C 400.824219 115.03125 393.03125 160.871094 364.21875 203.082031 C 335.40625 245.292969 297.941406 251.882812 251.820312 222.851562 C 205.703125 193.820312 191.695312 158.992188 209.800781 118.371094 C 227.90625 77.746094 258.761719 46.417969 302.363281 24.386719 C 345.964844 2.359375 374.375 16.082031 387.601562 65.554688 Z M 387.601562 65.554688 "/></g></g></g><g clip-rule="nonzero" clip-path="url(#d5c97682cf)"><g clip-rule="nonzero" clip-path="url(#cc3ff0906f)"><g clip-rule="nonzero" clip-path="url(#cc56a1da3c)"><path style=" stroke:none;fill-rule:nonzero;fill:#fa6602;fill-opacity:1;" d="M 693.785156 -7.386719 C 718.699219 47.234375 708.648438 84.703125 663.628906 105.011719 C 618.613281 125.324219 576.5 129.847656 537.292969 118.578125 C 498.085938 107.3125 482.667969 79.363281 491.042969 34.742188 C 499.417969 -9.882812 529.074219 -41.714844 580.011719 -60.757812 C 630.949219 -79.796875 668.871094 -62.007812 693.785156 -7.386719 Z M 693.785156 -7.386719 "/></g></g></g><g clip-rule="nonzero" clip-path="url(#132ede07a3)"><g clip-rule="nonzero" clip-path="url(#e33652ffbb)"><g clip-rule="nonzero" clip-path="url(#f0bf2f7d5e)"><path style=" stroke:none;fill-rule:nonzero;fill:#fa6602;fill-opacity:1;" d="M 519.027344 397.515625 C 541.15625 438.363281 535.597656 478.308594 502.351562 517.34375 C 469.105469 556.378906 435.6875 559.664062 402.097656 527.195312 C 368.507812 494.730469 353.628906 460.054688 357.460938 423.171875 C 361.296875 386.289062 383.648438 362.578125 424.519531 352.042969 C 465.394531 341.507812 496.894531 356.664062 519.027344 397.515625 Z M 519.027344 397.515625 "/></g></g></g><g clip-rule="nonzero" clip-path="url(#91477f21f1)"><g clip-rule="nonzero" clip-path="url(#98954e4f3e)"><g clip-rule="nonzero" clip-path="url(#4005730eeb)"><path style=" stroke:none;fill-rule:nonzero;fill:#e0feca;fill-opacity:1;" d="M 1217.972656 -12.390625 C 1246.078125 21.46875 1241.914062 53.976562 1205.484375 85.125 C 1169.054688 116.273438 1132.703125 120.277344 1096.421875 97.132812 C 1060.144531 73.984375 1041.273438 38.4375 1039.808594 -9.507812 C 1038.339844 -57.457031 1060.644531 -78.390625 1106.710938 -72.308594 C 1152.777344 -66.222656 1189.863281 -46.25 1217.972656 -12.390625 Z M 1217.972656 -12.390625 "/></g></g></g><g clip-rule="nonzero" clip-path="url(#20320ec6ba)"><g clip-rule="nonzero" clip-path="url(#c9c6191f57)"><g clip-rule="nonzero" clip-path="url(#b110855a74)"><path style=" stroke:none;fill-rule:nonzero;fill:#e0feca;fill-opacity:1;" d="M 923.332031 338.992188 C 872.621094 329.066406 831.078125 306.917969 798.699219 272.554688 C 766.320312 238.1875 769.335938 200.425781 807.75 159.261719 C 846.160156 118.101562 882.589844 114.96875 917.03125 149.871094 C 951.472656 184.769531 973.808594 227.496094 984.042969 278.050781 C 994.277344 328.609375 974.039062 348.921875 923.332031 338.992188 Z M 923.332031 338.992188 "/></g></g></g><g clip-rule="nonzero" clip-path="url(#24949bb4b3)"><g clip-rule="nonzero" clip-path="url(#20fd879856)"><g clip-rule="nonzero" clip-path="url(#741cac346e)"><path style=" stroke:none;fill-rule:nonzero;fill:#e0feca;fill-opacity:1;" d="M 1059.800781 603.1875 C 1091.316406 651.023438 1083.984375 690.402344 1037.800781 721.320312 C 991.617188 752.238281 945.644531 757.726562 899.886719 737.78125 C 854.125 717.839844 838.183594 684.621094 852.050781 638.117188 C 865.921875 591.617188 896.132812 562.210938 942.691406 549.898438 C 989.25 537.585938 1028.289062 555.347656 1059.800781 603.1875 Z M 1059.800781 603.1875 "/></g></g></g><path style=" stroke:none;fill-rule:nonzero;fill:#e0feca;fill-opacity:1;" d="M 638.996094 799.136719 C 611.242188 849.25 572.957031 861.019531 524.140625 834.453125 C 475.324219 807.882812 449.132812 769.707031 445.570312 719.917969 C 442.003906 670.128906 464.039062 640.59375 511.664062 631.304688 C 559.292969 622.015625 599.359375 635.136719 631.871094 670.671875 C 664.378906 706.203125 666.753906 749.023438 638.996094 799.136719 Z M 638.996094 799.136719 "/><path style=" stroke:none;fill-rule:nonzero;fill:#ffffff;fill-opacity:1;" d="M 100.222656 495.488281 C 60.480469 521.300781 24.027344 530.316406 -9.125 522.542969 C -42.28125 514.765625 -65.234375 488.25 -77.976562 443 C -90.722656 397.746094 -71.929688 368.910156 -21.601562 356.492188 C 28.726562 344.070312 71.550781 357.679688 106.867188 397.316406 C 142.179688 436.953125 139.96875 469.675781 100.222656 495.488281 Z M 100.222656 495.488281 "/><path style=" stroke:none;fill-rule:nonzero;fill:#fa6602;fill-opacity:1;" d="M 1482.722656 258.953125 C 1439.414062 285.089844 1400.640625 294.484375 1366.40625 287.140625 C 1332.171875 279.796875 1306.628906 251.230469 1289.78125 201.445312 C 1272.933594 151.65625 1292.804688 120.820312 1349.394531 108.941406 C 1405.988281 97.0625 1453.183594 112.558594 1490.984375 155.433594 C 1528.785156 198.3125 1526.03125 232.816406 1482.722656 258.953125 Z M 1482.722656 258.953125 "/><path style=" stroke:none;fill-rule:nonzero;fill:#fa6602;fill-opacity:1;" d="M 1293.992188 843.789062 C 1278.871094 885.800781 1252.25 894.710938 1214.125 870.519531 C 1176.003906 846.324219 1150.730469 811.925781 1138.308594 767.324219 C 1125.890625 722.71875 1145.4375 691.398438 1196.953125 673.363281 C 1248.46875 655.328125 1281.300781 668.71875 1295.449219 713.539062 C 1309.597656 758.359375 1309.113281 801.777344 1293.992188 843.789062 Z M 1293.992188 843.789062 "/><path style=" stroke:none;fill-rule:nonzero;fill:#fa6602;fill-opacity:1;" d="M 169.9375 793.476562 C 138.511719 836.460938 100.601562 847.53125 56.214844 826.6875 C 11.824219 805.84375 -14.578125 770.203125 -23.003906 719.765625 C -31.429688 669.328125 -8.640625 634.933594 45.359375 616.570312 C 99.359375 598.210938 141.480469 612.359375 171.71875 659.015625 C 201.960938 705.671875 201.367188 750.492188 169.9375 793.476562 Z M 169.9375 793.476562 "/><path style=" stroke:none;fill-rule:nonzero;fill:#fa6602;fill-opacity:1;" d="M 849.066406 489.765625 C 819.152344 533.289062 775.789062 548.785156 718.980469 536.257812 C 662.171875 523.730469 635.660156 487.875 639.4375 428.691406 C 643.21875 369.507812 671.40625 332.894531 724.003906 318.855469 C 776.597656 304.816406 818.070312 318.910156 848.417969 361.136719 C 878.765625 403.363281 878.984375 446.242188 849.066406 489.765625 Z M 849.066406 489.765625 "/><path style=" stroke:none;fill-rule:nonzero;fill:#fa6602;fill-opacity:1;" d="M 1474.300781 751.15625 C 1444.382812 794.683594 1401.019531 810.179688 1344.214844 797.652344 C 1287.40625 785.125 1260.890625 749.269531 1264.671875 690.085938 C 1268.449219 630.898438 1296.640625 594.289062 1349.234375 580.25 C 1401.832031 566.207031 1443.304688 580.300781 1473.652344 622.53125 C 1504 664.757812 1504.214844 707.632812 1474.300781 751.15625 Z M 1474.300781 751.15625 "/><path style=" stroke:none;fill-rule:nonzero;fill:#e0feca;fill-opacity:1;" d="M 586.378906 355.445312 C 574.28125 406.742188 545.769531 417.003906 500.84375 386.222656 C 455.914062 355.445312 431.183594 317.859375 426.648438 273.472656 C 422.109375 229.082031 444.144531 194.46875 492.742188 169.628906 C 541.34375 144.789062 572.125 156.722656 585.082031 205.433594 C 598.042969 254.140625 598.476562 304.144531 586.378906 355.445312 Z M 586.378906 355.445312 "/><path style=" stroke:none;fill-rule:nonzero;fill:#ffffff;fill-opacity:1;" d="M 1218.789062 287.710938 C 1189.304688 317.519531 1150.75 331.289062 1103.121094 329.023438 C 1055.496094 326.753906 1030.816406 297.433594 1029.089844 241.054688 C 1027.359375 184.679688 1054.035156 147.097656 1109.117188 128.304688 C 1164.195312 109.511719 1203.617188 123.929688 1227.375 171.558594 C 1251.136719 219.1875 1248.273438 257.902344 1218.789062 287.710938 Z M 1218.789062 287.710938 "/></g></svg>